{
  "accessors": [
    {
      "bufferView": 2,
      "componentType": 5126,
      "count": 960,
      "max": [
        3.0534582138061523,
        6.3747663497924805,
        2.9981465339660645
      ],
      "min": [
        -3.0351624488830566,
        1.4674434661865234,
        -2.312089204788208
      ],
      "type": "VEC3"
    },
    {
      "bufferView": 2,
      "byteOffset": 11520,
      "componentType": 5126,
      "count": 960,
      "max": [
        0.9929297566413879,
        0.9983518719673157,
        0.9936301112174988
      ],
      "min": [
        -0.9993064999580383,
        -0.9851439595222473,
        -0.9939700961112976
      ],
      "type": "VEC3"
    },
    {
      "bufferView": 1,
      "componentType": 5126,
      "count": 960,
      "max": [
        1.0,
        0.47238200902938843
      ],
      "min": [
        0.0,
        0.0
      ],
      "type": "VEC2"
    },
    {
      "bufferView": 0,
      "componentType": 5125,
      "count": 960,
      "type": "SCALAR"
    },
    {
      "bufferView": 2,
      "byteOffset": 23040,
      "componentType": 5126,
      "count": 544,
      "max": [
        1.7310150861740112,
        3.958615779876709,
        1.659679889678955
      ],
      "min": [
        -1.567569613456726,
        -1.0,
        -0.7639825344085693
      ],
      "type": "VEC3"
    },
    {
      "bufferView": 2,
      "byteOffset": 29568,
      "componentType": 5126,
      "count": 544,
      "max": [
        0.993439257144928,
        0.8426629900932312,
        0.9962660670280457
      ],
      "min": [
        -0.9937506318092346,
        -1.0,
        -0.9986248016357422
      ],
      "type": "VEC3"
    },
    {
      "bufferView": 1,
      "byteOffset": 7680,
      "componentType": 5126,
      "count": 544,
      "max": [
        1.0,
        1.0
      ],
      "min": [
        0.0,
        0.01000000536441803
      ],
      "type": "VEC2"
    },
    {
      "bufferView": 0,
      "byteOffset": 3840,
      "componentType": 5125,
      "count": 864,
      "type": "SCALAR"
    }
  ],
  "asset": {
    "extras": {
      "author": "adam127 (https://sketchfab.com/adam127)",
      "license": "CC-BY-4.0 (http://creativecommons.org/licenses/by/4.0/)",
      "source": "https://sketchfab.com/3d-models/lowpoly-tree-f36516c557b04d41b3ec127959f404ac",
      "title": "Lowpoly Tree"
    },
    "generator": "Sketchfab-12.59.0",
    "version": "2.0"
  },
  "bufferViews": [
    {
      "buffer": 0,
      "byteLength": 7296,
      "name": "floatBufferViews",
      "target": 34963
    },
    {
      "buffer": 0,
      "byteLength": 12032,
      "byteOffset": 7296,
      "byteStride": 8,
      "name": "floatBufferViews",
      "target": 34962
    },
    {
      "buffer": 0,
      "byteLength": 36096,
      "byteOffset": 19328,
      "byteStride": 12,
      "name": "floatBufferViews",
      "target": 34962
    }
  ],
  "buffers": [
    {
      "byteLength": 55424,
      "uri": "scene.bin"
    }
  ],
  "materials": [
    {
      "doubleSided": true,
      "name": "Tree_leaf",
      "pbrMetallicRoughness": {
        "baseColorFactor": [
          0.06616979999999995,
          0.39311399999999996,
          0.05437020000000001,
          1.0
        ],
        "metallicFactor": 0.0,
        "roughnessFactor": 0.6583687503420098
      }
    },
    {
      "doubleSided": true,
      "name": "Tree_wood",
      "pbrMetallicRoughness": {
        "baseColorFactor": [
          0.110689,
          0.0672892,
          0.028225,
          1.0
        ],
        "metallicFactor": 0.0,
        "roughnessFactor": 0.46380320911539563
      }
    }
  ],
  "meshes": [
    {
      "name": "Object_0",
      "primitives": [
        {
          "attributes": {
            "NORMAL": 1,
            "POSITION": 0,
            "TEXCOORD_0": 2
          },
          "indices": 3,
          "material": 0,
          "mode": 4
        }
      ]
    },
    {
      "name": "Object_1",
      "primitives": [
        {
          "attributes": {
            "NORMAL": 5,
            "POSITION": 4,
            "TEXCOORD_0": 6
          },
          "indices": 7,
          "material": 1,
          "mode": 4
        }
      ]
    }
  ],
  "nodes": [
    {
      "children": [
        1
      ],
      "matrix": [
        1.0,
        0.0,
        0.0,
        0.0,
        0.0,
        2.220446049250313e-16,
        -1.0,
        0.0,
        0.0,
        1.0,
        2.220446049250313e-16,
        0.0,
        0.0,
        0.0,
        0.0,
        1.0
      ],
      "name": "Sketchfab_model"
    },
    {
      "children": [
        2
      ],
      "name": "root"
    },
    {
      "children": [
        3
      ],
      "matrix": [
        1.0,
        0.0,
        0.0,
        0.0,
        0.0,
        2.220446049250313e-16,
        1.0,
        0.0,
        0.0,
        -1.0,
        2.220446049250313e-16,
        0.0,
        0.0,
        0.0,
        0.0,
        1.0
      ],
      "name": "GLTF_SceneRootNode"
    },
    {
      "children": [
        4,
        5
      ],
      "name": "Cylinder_2"
    },
    {
      "mesh": 0,
      "name": "Object_4"
    },
    {
      "mesh": 1,
      "name": "Object_5"
    }
  ],
  "scene": 0,
  "scenes": [
    {
      "name": "Sketchfab_Scene",
      "nodes": [
        0
      ]
    }
  ]
}
